<?xml version="1.0" encoding="UTF-8"?>
<svg width="632px" height="230px" viewBox="0 0 632 230" version="1.1" xmlns="http://www.w3.org/2000/svg" xmlns:xlink="http://www.w3.org/1999/xlink">
    <!-- Generator: Sketch 61.2 (89653) - https://sketch.com -->
    <title>Top</title>
    <desc>Created with Sketch.</desc>
    <g id="Components" stroke="none" stroke-width="1" fill="none" fill-rule="evenodd">
        <g id="Full-Burger-Copy" transform="translate(-34.000000, -78.000000)">
            <g id="Top" transform="translate(30.000000, 78.000000)">
                <path d="M4.70665646,209.200949 C40.4011792,69.7336497 145.49896,0 320,0 C494.501041,0 599.598822,69.7336505 635.293344,209.200951 C637.575595,218.118275 632.196807,227.197325 623.279484,229.479577 C621.929203,229.825161 620.540904,230 619.147101,230 L20.8529008,230 C11.6481545,230.000001 4.18623327,222.53808 4.18623327,213.333333 C4.18623327,211.93953 4.36107254,210.551231 4.70665646,209.200949 Z" id="Bun-2" fill="#EEA200"></path>
                <g id="Seeds" transform="translate(210.000000, 36.666667)" fill="#FFFFFF">
                    <ellipse id="Oval" transform="translate(15.000000, 48.333333) rotate(49.000000) translate(-15.000000, -48.333333) " cx="15" cy="48.3333333" rx="16.6666667" ry="5"></ellipse>
                    <ellipse id="Oval" transform="translate(70.000000, 16.666667) scale(-1, 1) rotate(49.000000) translate(-70.000000, -16.666667) " cx="70" cy="16.6666667" rx="16.6666667" ry="5"></ellipse>
                    <ellipse id="Oval" transform="translate(110.000000, 48.333333) rotate(49.000000) translate(-110.000000, -48.333333) " cx="110" cy="48.3333333" rx="16.6666667" ry="5"></ellipse>
                    <ellipse id="Oval" transform="translate(156.666667, 16.666667) scale(-1, 1) rotate(49.000000) translate(-156.666667, -16.666667) " cx="156.666667" cy="16.6666667" rx="16.6666667" ry="5"></ellipse>
                    <ellipse id="Oval" transform="translate(206.666667, 41.666667) rotate(49.000000) translate(-206.666667, -41.666667) " cx="206.666667" cy="41.6666667" rx="16.6666667" ry="5"></ellipse>
                </g>
            </g>
        </g>
    </g>
</svg>