<svg xmlns="http://www.w3.org/2000/svg" width="333" height="333" viewBox="0 0 333 333">
    <defs>
        <filter id="a" width="110.9%" height="110.9%" x="-5.5%" y="-5.5%" filterUnits="objectBoundingBox">
            <feOffset dy="3" in="SourceAlpha" result="shadowOffsetOuter1"/>
            <feGaussianBlur in="shadowOffsetOuter1" result="shadowBlurOuter1" stdDeviation="3"/>
            <feColorMatrix in="shadowBlurOuter1" result="shadowMatrixOuter1" values="0 0 0 0 0 0 0 0 0 0 0 0 0 0 0 0 0 0 0.08 0"/>
            <feMerge>
                <feMergeNode in="shadowMatrixOuter1"/>
                <feMergeNode in="SourceGraphic"/>
            </feMerge>
        </filter>
    </defs>
    <g fill="none" fill-rule="evenodd" filter="url(#a)" transform="translate(6 3)">
        <circle cx="160.5" cy="160.5" r="160.5" fill="#FFD058"/>
        <circle cx="160.5" cy="160.5" r="148.5" fill="#FFF"/>
        <g transform="translate(85.847 71)">
            <path fill="#EEA200" d="M1.538 85.728h144.546c.85 0 1.538.689 1.538 1.538v20.375a7.689 7.689 0 0 1-7.689 7.688H7.689A7.689 7.689 0 0 1 0 107.641V87.266c0-.85.688-1.538 1.538-1.538z"/>
            <rect width="143.777" height="13.84" x="1.922" y="72.273" fill="#8D4A1E" rx="1.538"/>
            <g fill="#D8021F" transform="translate(1.922 65.353)">
                <rect width="71.889" height="6.92" rx="1.538"/>
                <rect width="71.889" height="6.92" x="71.889" rx="1.538"/>
            </g>
            <g fill="#FF7E90" transform="translate(1.922 58.434)">
                <rect width="71.889" height="6.92" rx="1.538"/>
                <rect width="71.889" height="6.92" x="71.889" rx="1.538"/>
            </g>
            <path fill="#000" fill-opacity=".04" d="M21.913 65.738H144.93l-25.38 37.29c-13.22-14.234-45.766-26.664-97.638-37.29z"/>
            <path fill="#F5C100" d="M21.913 65.353H144.93l-25.38 31.524c-13.22-12.033-45.766-22.541-97.638-31.524z"/>
            <path fill="#000" fill-opacity=".02" d="M11.303 54.205h131.085c3.82 9.49 4.335 14.432 1.543 14.825-4.187.59-5.74-1.11-11.465-3.34-5.725-2.232-9.444 16.35-22.348 8.467-8.602-5.256-12.904-8.079-12.904-8.468-2.65-2.448-6.065-1.837-10.242 1.833-6.265 5.504-8.019 9.08-13.333 7.42-5.315-1.66-10.101-10.119-14.954-10.119-4.852 0-5.972 7.353-13.798 8.442-7.826 1.09-14.132-.792-20.468-7.576-6.335-6.783-20.575 3.341-20.575-.866.19-2.306 1.255-5.048 3.193-8.224a4.998 4.998 0 0 1 4.266-2.394z"/>
            <path fill="#556F31" d="M7.59 50.36h136.586c3.976 9.49 4.511 14.433 1.606 14.826-4.358.59-5.973-1.11-11.931-3.341-5.959-2.231-9.828 16.35-23.257 8.467-8.952-5.255-13.428-8.078-13.428-8.467-2.76-2.448-6.312-1.837-10.659 1.832-6.52 5.505-8.345 9.081-13.876 7.421-5.53-1.66-10.51-10.119-15.56-10.119-5.05 0-6.215 7.353-14.36 8.442-8.144 1.09-14.706-.793-21.3-7.576C14.818 55.06 0 65.185 0 60.979c.2-2.327 1.326-5.098 3.378-8.311A4.998 4.998 0 0 1 7.59 50.36z"/>
            <path fill="#EEA200" d="M1.086 48.254C9.319 16.084 33.56 0 73.81 0c40.25 0 64.492 16.085 72.725 48.254a3.844 3.844 0 0 1-3.724 4.798H4.81a3.844 3.844 0 0 1-3.724-4.798z"/>
            <g fill="#FFF" transform="translate(48.438 8.457)">
                <ellipse cx="3.46" cy="11.149" rx="3.844" ry="1.153" transform="rotate(49 3.46 11.149)"/>
                <ellipse cx="16.146" cy="3.844" rx="3.844" ry="1.153" transform="scale(-1 1) rotate(49 0 -31.585)"/>
                <ellipse cx="25.372" cy="11.149" rx="3.844" ry="1.153" transform="rotate(49 25.372 11.149)"/>
                <ellipse cx="36.137" cy="3.844" rx="3.844" ry="1.153" transform="scale(-1 1) rotate(49 0 -75.45)"/>
                <ellipse cx="47.669" cy="9.611" rx="3.844" ry="1.153" transform="rotate(49 47.67 9.61)"/>
            </g>
        </g>
        <path fill="#8D4A1E" fill-rule="nonzero" d="M62.28 229.77c3.512 0 6.184-.634 8.016-1.903 1.833-1.268 2.749-3.082 2.749-5.44 0-1.665-.436-3.069-1.307-4.209-.872-1.14-2.076-1.954-3.614-2.441 1.128-.59 2.006-1.397 2.634-2.422.627-1.025.941-2.191.941-3.498 0-2.153-.877-3.858-2.633-5.113-1.755-1.256-4.274-1.884-7.554-1.884H48.364v26.91h13.917zm-1.537-15.877h-6.19v-6.343h6.19c1.538 0 2.704.263 3.498.788.795.526 1.192 1.314 1.192 2.364 0 1.051-.397 1.846-1.192 2.384-.794.538-1.96.807-3.498.807zm1.077 11.187h-7.266v-6.65h7.266c3.306 0 4.959 1.114 4.959 3.344 0 1.128-.417 1.96-1.25 2.499-.833.538-2.07.807-3.71.807zM84 229.77v-7.496h5.728l5.19 7.496h6.69l-6.036-8.65c1.768-.768 3.133-1.877 4.094-3.325.96-1.448 1.441-3.171 1.441-5.17 0-2-.474-3.73-1.422-5.19-.948-1.461-2.3-2.589-4.056-3.383-1.755-.795-3.825-1.192-6.208-1.192H77.773v26.91h6.228zm5.075-12.455H84v-9.38h5.075c1.87 0 3.293.403 4.267 1.21.974.808 1.46 1.967 1.46 3.48 0 1.486-.486 2.64-1.46 3.46-.974.82-2.396 1.23-4.267 1.23zm23.18 12.455v-7.496h5.729l5.19 7.496h6.689l-6.036-8.65c1.769-.768 3.133-1.877 4.095-3.325.96-1.448 1.441-3.171 1.441-5.17 0-2-.474-3.73-1.422-5.19-.949-1.461-2.3-2.589-4.056-3.383-1.756-.795-3.825-1.192-6.209-1.192H106.03v26.91h6.228zm5.075-12.455h-5.074v-9.38h5.074c1.871 0 3.294.403 4.268 1.21.974.808 1.46 1.967 1.46 3.48 0 1.486-.486 2.64-1.46 3.46-.974.82-2.397 1.23-4.268 1.23zm23.182 12.455v-7.496h5.728l5.19 7.496h6.689l-6.036-8.65c1.768-.768 3.133-1.877 4.094-3.325.961-1.448 1.442-3.171 1.442-5.17 0-2-.474-3.73-1.423-5.19-.948-1.461-2.3-2.589-4.055-3.383-1.756-.795-3.825-1.192-6.209-1.192h-11.648v26.91h6.228zm5.074-12.455h-5.074v-9.38h5.074c1.871 0 3.293.403 4.267 1.21.974.808 1.461 1.967 1.461 3.48 0 1.486-.487 2.64-1.46 3.46-.975.82-2.397 1.23-4.268 1.23zm29.947 12.916c1.948 0 3.883-.294 5.805-.884 1.922-.59 3.614-1.435 5.075-2.537v-10.918h-5.69v7.881c-1.435.769-3.05 1.153-4.844 1.153-1.691 0-3.197-.365-4.517-1.095a7.886 7.886 0 0 1-3.094-3.057c-.744-1.307-1.115-2.793-1.115-4.459 0-1.691.371-3.19 1.115-4.498a7.722 7.722 0 0 1 3.113-3.037c1.333-.717 2.858-1.076 4.575-1.076 2.717 0 5.036 1.012 6.958 3.037l3.999-3.69c-1.308-1.513-2.922-2.666-4.844-3.46-1.922-.795-4.062-1.192-6.42-1.192-2.82 0-5.357.596-7.612 1.787-2.255 1.192-4.017 2.845-5.286 4.96-1.269 2.114-1.903 4.504-1.903 7.17 0 2.664.634 5.054 1.903 7.169 1.269 2.114 3.018 3.767 5.247 4.959 2.23 1.192 4.742 1.787 7.535 1.787zm22.874-.46v-7.497h5.728l5.19 7.496h6.689l-6.036-8.65c1.769-.768 3.134-1.877 4.095-3.325.96-1.448 1.441-3.171 1.441-5.17 0-2-.474-3.73-1.422-5.19-.948-1.461-2.3-2.589-4.056-3.383-1.756-.795-3.825-1.192-6.209-1.192H192.18v26.91h6.228zm5.075-12.456h-5.075v-9.38h5.075c1.87 0 3.293.403 4.267 1.21.974.808 1.46 1.967 1.46 3.48 0 1.486-.486 2.64-1.46 3.46-.974.82-2.397 1.23-4.267 1.23zm23.18 12.455v-7.496h5.729l5.19 7.496h6.689l-6.036-8.65c1.768-.768 3.133-1.877 4.094-3.325.961-1.448 1.442-3.171 1.442-5.17 0-2-.474-3.73-1.422-5.19-.949-1.461-2.3-2.589-4.056-3.383-1.756-.795-3.825-1.192-6.209-1.192h-11.648v26.91h6.228zm5.075-12.455h-5.074v-9.38h5.074c1.871 0 3.294.403 4.267 1.21.974.808 1.461 1.967 1.461 3.48 0 1.486-.487 2.64-1.46 3.46-.974.82-2.397 1.23-4.268 1.23zm23.181 12.455v-7.496h5.728l5.19 7.496h6.69l-6.036-8.65c1.768-.768 3.133-1.877 4.094-3.325.961-1.448 1.442-3.171 1.442-5.17 0-2-.475-3.73-1.423-5.19-.948-1.461-2.3-2.589-4.056-3.383-1.755-.795-3.825-1.192-6.208-1.192h-11.648v26.91h6.227zm5.075-12.455h-5.075v-9.38h5.075c1.87 0 3.293.403 4.267 1.21.974.808 1.46 1.967 1.46 3.48 0 1.486-.486 2.64-1.46 3.46-.974.82-2.396 1.23-4.267 1.23z"/>
        <path fill="#EEA200" fill-rule="nonzero" d="M82.594 250.145v-3.54h3.472v3.54h1.453v-7.992h-1.453v3.194h-3.472v-3.194h-1.453v7.992h1.453zm9.919.173c.545 0 1.018-.079 1.418-.236.4-.158.729-.38.986-.664.258-.284.45-.618.577-1.003a4.03 4.03 0 0 0 .19-1.269v-4.993H94.22v4.855c0 .361-.04.67-.12.928a1.62 1.62 0 0 1-.347.629c-.15.161-.328.28-.536.358a1.98 1.98 0 0 1-.692.115c-.254 0-.482-.039-.686-.115a1.38 1.38 0 0 1-.53-.358 1.62 1.62 0 0 1-.347-.629 3.126 3.126 0 0 1-.12-.928v-4.855h-1.465v4.993c0 .462.061.885.184 1.27a2.7 2.7 0 0 0 .571 1.002c.258.285.582.506.975.664.392.157.86.236 1.407.236zm6.458-.173v-5.72c.323.384.663.817 1.02 1.297.358.48.71.977 1.056 1.488.346.511.68 1.019 1.003 1.522.323.504.615.975.877 1.413h1.234v-7.992h-1.442v5.305c-.261-.415-.56-.863-.894-1.344a55.815 55.815 0 0 0-2.105-2.814 17.767 17.767 0 0 0-.991-1.147H97.54v7.992h1.43zm10.633.161c.623 0 1.173-.046 1.65-.138.476-.092.815-.177 1.014-.254v-3.84h-1.453v2.872c-.107.03-.253.055-.438.075-.184.019-.404.028-.657.028-.408 0-.763-.07-1.067-.213a2.108 2.108 0 0 1-.761-.594 2.606 2.606 0 0 1-.462-.917 4.23 4.23 0 0 1-.155-1.182c0-.907.217-1.616.651-2.128.435-.511 1.063-.767 1.886-.767.377 0 .736.048 1.078.144.342.097.629.214.86.352l.438-1.188a8.405 8.405 0 0 0-.283-.15 3.008 3.008 0 0 0-.513-.196 6.66 6.66 0 0 0-.744-.167 5.817 5.817 0 0 0-.986-.075 4.18 4.18 0 0 0-1.522.277 3.517 3.517 0 0 0-1.246.813 3.845 3.845 0 0 0-.836 1.309c-.204.515-.306 1.107-.306 1.776s.093 1.261.277 1.776c.185.515.444.95.779 1.303.334.354.74.623 1.216.808a4.343 4.343 0 0 0 1.58.276zm5.801-.161v-3.022h.923c.077 0 .17-.003.277-.011a19.366 19.366 0 0 1 .986 1.378c.173.265.344.538.513.819.17.28.327.56.473.836h1.626c-.138-.3-.296-.605-.473-.917a18.953 18.953 0 0 0-1.119-1.736c-.184-.253-.35-.469-.495-.645 1.068-.385 1.603-1.12 1.603-2.203 0-.869-.306-1.515-.917-1.938-.611-.423-1.494-.634-2.647-.634-.315 0-.673.013-1.072.04a7.78 7.78 0 0 0-1.13.156v7.877h1.452zm.635-4.198h-.635v-2.583a9.75 9.75 0 0 1 .854-.035 4.5 4.5 0 0 1 .784.063c.238.043.444.114.617.214.173.1.306.234.398.404.092.169.138.376.138.622 0 .262-.046.477-.138.646a1.01 1.01 0 0 1-.41.404c-.18.1-.405.169-.674.207a6.68 6.68 0 0 1-.934.058zm8.476 4.198v-3.137a54.578 54.578 0 0 0 1.494-2.428c.465-.803.913-1.612 1.344-2.427h-1.615c-.27.6-.569 1.195-.9 1.787-.33.592-.669 1.177-1.015 1.753a39.857 39.857 0 0 1-1.014-1.753 25.735 25.735 0 0 1-.888-1.787h-1.707c.43.815.88 1.626 1.349 2.433.469.807.969 1.622 1.5 2.445v3.114h1.452zm5.79-2.514a.876.876 0 0 1-.012-.144v-.133c0-.23.049-.438.145-.623.096-.184.217-.36.363-.524.146-.166.304-.327.473-.485.169-.157.327-.325.473-.502a2.65 2.65 0 0 0 .363-.576c.096-.208.144-.442.144-.704 0-.215-.035-.438-.104-.669a1.618 1.618 0 0 0-.369-.634 2.027 2.027 0 0 0-.715-.479c-.3-.126-.68-.19-1.142-.19a4.4 4.4 0 0 0-2.099.53l.393 1.073c.269-.146.526-.252.772-.317s.504-.098.773-.098c.346 0 .605.083.778.248.173.165.26.375.26.629 0 .184-.042.353-.127.507a2.442 2.442 0 0 1-.323.45 8.88 8.88 0 0 1-.42.438c-.15.146-.291.304-.422.473-.13.17-.238.354-.323.553-.084.2-.127.427-.127.68a2.872 2.872 0 0 0 .047.497h1.199zm-.565 2.664c.261 0 .48-.085.657-.254a.869.869 0 0 0 .266-.657c0-.27-.089-.49-.266-.663a.903.903 0 0 0-.657-.26.909.909 0 0 0-.923.923c0 .269.09.488.271.657a.92.92 0 0 0 .652.254zm9.964.011c.623 0 1.173-.046 1.65-.138.476-.092.815-.177 1.014-.254v-3.84h-1.453v2.872c-.107.03-.253.055-.438.075-.184.019-.404.028-.657.028-.408 0-.763-.07-1.067-.213a2.108 2.108 0 0 1-.761-.594 2.606 2.606 0 0 1-.462-.917 4.23 4.23 0 0 1-.155-1.182c0-.907.217-1.616.651-2.128.435-.511 1.063-.767 1.886-.767.377 0 .736.048 1.078.144.342.097.629.214.86.352l.438-1.188a8.405 8.405 0 0 0-.283-.15 3.008 3.008 0 0 0-.513-.196 6.66 6.66 0 0 0-.744-.167 5.817 5.817 0 0 0-.986-.075 4.18 4.18 0 0 0-1.522.277 3.517 3.517 0 0 0-1.246.813 3.845 3.845 0 0 0-.836 1.309c-.204.515-.306 1.107-.306 1.776s.093 1.261.277 1.776c.185.515.444.95.779 1.303.334.354.74.623 1.216.808a4.343 4.343 0 0 0 1.58.276zm5.801-.161v-3.022h.923c.077 0 .17-.003.277-.011a19.366 19.366 0 0 1 .986 1.378c.173.265.344.538.513.819.17.28.327.56.473.836h1.626c-.138-.3-.296-.605-.473-.917a18.954 18.954 0 0 0-1.119-1.736c-.184-.253-.35-.469-.495-.645 1.068-.385 1.603-1.12 1.603-2.203 0-.869-.306-1.515-.917-1.938-.611-.423-1.494-.634-2.647-.634-.315 0-.673.013-1.073.04a7.78 7.78 0 0 0-1.13.156v7.877h1.453zm.635-4.198h-.635v-2.583a9.75 9.75 0 0 1 .854-.035 4.5 4.5 0 0 1 .784.063c.238.043.444.114.617.214.173.1.306.234.398.404.092.169.138.376.138.622 0 .262-.046.477-.138.646a1.01 1.01 0 0 1-.41.404c-.18.1-.405.169-.674.207a6.68 6.68 0 0 1-.934.058zm6.193 4.198c.108-.308.217-.617.329-.928.111-.312.22-.629.328-.952h3.368c.108.323.219.638.334.946.116.307.227.619.335.934h1.568a108.834 108.834 0 0 0-1.655-4.417 66.336 66.336 0 0 0-.767-1.845 59.087 59.087 0 0 0-.784-1.73h-1.372c-.27.569-.53 1.145-.785 1.73-.253.584-.509 1.2-.766 1.845a95.65 95.65 0 0 0-.79 2.053c-.27.723-.554 1.51-.854 2.364h1.51zm3.656-3.056h-2.63c.246-.684.483-1.319.71-1.903.226-.584.428-1.08.605-1.488.17.392.37.884.6 1.476.23.592.469 1.23.715 1.915zm6.032 3.148c1.237 0 2.156-.205 2.756-.617.6-.411.9-1.028.9-1.85 0-.485-.116-.885-.346-1.2-.231-.315-.589-.554-1.073-.715a1.92 1.92 0 0 0 .755-.646c.181-.27.271-.592.271-.969 0-.407-.084-.75-.253-1.026-.17-.277-.406-.5-.71-.67a3.423 3.423 0 0 0-1.078-.362 7.797 7.797 0 0 0-1.35-.11 14.303 14.303 0 0 0-1.74.11c-.193.026-.374.055-.543.086v7.762c.323.084.7.14 1.13.167.431.027.858.04 1.28.04zm.046-4.832h-1.027v-2.099c.123-.015.271-.027.444-.035.173-.007.371-.011.594-.011.523 0 .948.08 1.275.242.326.162.49.434.49.819 0 .407-.158.69-.473.848-.315.157-.75.236-1.303.236zm0 3.621a12.265 12.265 0 0 1-1.027-.046v-2.433h1.28c.585 0 1.042.088 1.373.265.33.177.496.492.496.946 0 .253-.056.461-.167.622-.112.162-.262.29-.45.387a2.172 2.172 0 0 1-.67.202 5.675 5.675 0 0 1-.835.057zm8.419 1.119c.107-.308.217-.617.328-.928.112-.312.221-.629.33-.952h3.367c.107.323.219.638.334.946.116.307.227.619.335.934h1.568a108.834 108.834 0 0 0-1.655-4.417 66.336 66.336 0 0 0-.767-1.845 59.087 59.087 0 0 0-.784-1.73h-1.372c-.27.569-.53 1.145-.785 1.73-.253.584-.509 1.2-.767 1.845a95.65 95.65 0 0 0-.79 2.053c-.269.723-.553 1.51-.853 2.364h1.51zm3.656-3.056h-2.63c.246-.684.483-1.319.71-1.903.226-.584.428-1.08.605-1.488.17.392.369.884.6 1.476.23.592.469 1.23.715 1.915zm8.719 3.148c1.237 0 2.156-.205 2.756-.617.6-.411.9-1.028.9-1.85 0-.485-.116-.885-.346-1.2-.231-.315-.589-.554-1.073-.715a1.92 1.92 0 0 0 .755-.646c.181-.27.271-.592.271-.969 0-.407-.084-.75-.253-1.026-.17-.277-.406-.5-.71-.67a3.423 3.423 0 0 0-1.078-.362 7.797 7.797 0 0 0-1.35-.11 14.303 14.303 0 0 0-1.74.11c-.193.026-.374.055-.543.086v7.762c.323.084.7.14 1.13.167.431.027.858.04 1.28.04zm.046-4.832h-1.027v-2.099c.123-.015.271-.027.444-.035.173-.007.371-.011.594-.011.523 0 .948.08 1.275.242.326.162.49.434.49.819 0 .407-.158.69-.473.848-.315.157-.75.236-1.303.236zm0 3.621a12.265 12.265 0 0 1-1.027-.046v-2.433h1.28c.585 0 1.042.088 1.373.265.33.177.496.492.496.946 0 .253-.056.461-.167.622-.112.162-.262.29-.45.387a2.172 2.172 0 0 1-.67.202 5.675 5.675 0 0 1-.835.057zm6.574 1.119v-3.022h.922c.077 0 .17-.003.277-.011a19.367 19.367 0 0 1 .986 1.378c.173.265.344.538.513.819.17.28.327.56.473.836h1.626c-.138-.3-.296-.605-.473-.917a18.954 18.954 0 0 0-1.119-1.736c-.184-.253-.35-.469-.495-.645 1.068-.385 1.603-1.12 1.603-2.203 0-.869-.306-1.515-.917-1.938-.611-.423-1.494-.634-2.647-.634-.315 0-.673.013-1.072.04a7.78 7.78 0 0 0-1.13.156v7.877h1.453zm.634-4.198h-.634v-2.583a9.75 9.75 0 0 1 .853-.035 4.5 4.5 0 0 1 .784.063c.239.043.444.114.617.214.173.1.306.234.398.404.092.169.138.376.138.622 0 .262-.046.477-.138.646a1.01 1.01 0 0 1-.41.404c-.18.1-.405.169-.674.207a6.68 6.68 0 0 1-.934.058zm6.747 4.198v-3.022h.922c.077 0 .17-.003.277-.011a19.365 19.365 0 0 1 .986 1.378c.173.265.344.538.513.819.17.28.327.56.473.836h1.626c-.138-.3-.296-.605-.473-.917a18.954 18.954 0 0 0-1.119-1.736c-.184-.253-.35-.469-.495-.645 1.069-.385 1.603-1.12 1.603-2.203 0-.869-.306-1.515-.917-1.938-.611-.423-1.493-.634-2.647-.634-.315 0-.673.013-1.072.04a7.78 7.78 0 0 0-1.13.156v7.877h1.453zm.634-4.198h-.634v-2.583a9.75 9.75 0 0 1 .853-.035 4.5 4.5 0 0 1 .784.063c.239.043.444.114.617.214.173.1.306.234.398.404.092.169.139.376.139.622 0 .262-.047.477-.139.646a1.01 1.01 0 0 1-.41.404c-.18.1-.405.169-.674.207a6.68 6.68 0 0 1-.934.058zm6.747 4.198v-3.022h.922c.077 0 .17-.003.277-.011a19.365 19.365 0 0 1 .986 1.378c.173.265.344.538.513.819.17.28.327.56.473.836h1.626c-.138-.3-.296-.605-.472-.917a18.954 18.954 0 0 0-1.119-1.736c-.185-.253-.35-.469-.496-.645 1.069-.385 1.603-1.12 1.603-2.203 0-.869-.306-1.515-.917-1.938-.611-.423-1.493-.634-2.647-.634-.315 0-.672.013-1.072.04a7.78 7.78 0 0 0-1.13.156v7.877h1.453zm.634-4.198h-.634v-2.583a9.75 9.75 0 0 1 .853-.035 4.5 4.5 0 0 1 .784.063c.239.043.444.114.617.214.173.1.306.234.398.404.093.169.139.376.139.622 0 .262-.046.477-.139.646a1.01 1.01 0 0 1-.41.404c-.18.1-.405.169-.674.207a6.68 6.68 0 0 1-.934.058zm8.719 4.36c.623 0 1.172-.047 1.65-.139.476-.092.814-.177 1.014-.254v-3.84h-1.453v2.872c-.108.03-.254.055-.438.075-.185.019-.404.028-.658.028-.407 0-.763-.07-1.067-.213a2.108 2.108 0 0 1-.76-.594 2.606 2.606 0 0 1-.462-.917 4.23 4.23 0 0 1-.156-1.182c0-.907.217-1.616.652-2.128.434-.511 1.063-.767 1.885-.767.377 0 .737.048 1.079.144.342.097.628.214.859.352l.438-1.188a8.405 8.405 0 0 0-.282-.15 3.008 3.008 0 0 0-.514-.196 6.66 6.66 0 0 0-.743-.167 5.817 5.817 0 0 0-.986-.075 4.18 4.18 0 0 0-1.523.277 3.517 3.517 0 0 0-1.245.813 3.845 3.845 0 0 0-.836 1.309c-.204.515-.306 1.107-.306 1.776s.092 1.261.277 1.776c.184.515.444.95.778 1.303.335.354.74.623 1.217.808a4.343 4.343 0 0 0 1.58.276zm5.801-.162v-3.022h.923c.076 0 .169-.003.276-.011a19.365 19.365 0 0 1 .986 1.378c.173.265.345.538.514.819.169.28.326.56.473.836h1.626c-.139-.3-.296-.605-.473-.917a18.953 18.953 0 0 0-1.119-1.736c-.184-.253-.35-.469-.496-.645 1.069-.385 1.603-1.12 1.603-2.203 0-.869-.305-1.515-.917-1.938-.61-.423-1.493-.634-2.646-.634-.316 0-.673.013-1.073.04a7.78 7.78 0 0 0-1.13.156v7.877h1.453zm.634-4.198h-.634v-2.583a9.75 9.75 0 0 1 .853-.035 4.5 4.5 0 0 1 .785.063c.238.043.444.114.617.214.173.1.305.234.398.404.092.169.138.376.138.622 0 .262-.046.477-.138.646a1.01 1.01 0 0 1-.41.404c-.18.1-.405.169-.675.207a6.68 6.68 0 0 1-.934.058zm6.747 4.198v-3.022h.923c.077 0 .169-.003.276-.011a19.365 19.365 0 0 1 .986 1.378c.174.265.345.538.514.819.169.28.327.56.473.836h1.626c-.139-.3-.296-.605-.473-.917a18.954 18.954 0 0 0-1.119-1.736c-.184-.253-.35-.469-.496-.645 1.069-.385 1.603-1.12 1.603-2.203 0-.869-.305-1.515-.917-1.938-.61-.423-1.493-.634-2.646-.634-.316 0-.673.013-1.073.04a7.78 7.78 0 0 0-1.13.156v7.877h1.453zm.634-4.198h-.634v-2.583a9.75 9.75 0 0 1 .853-.035 4.5 4.5 0 0 1 .785.063c.238.043.444.114.617.214.173.1.305.234.398.404.092.169.138.376.138.622 0 .262-.046.477-.138.646a1.01 1.01 0 0 1-.41.404c-.18.1-.405.169-.674.207a6.68 6.68 0 0 1-.935.058zm6.747 4.198v-3.022h.923c.077 0 .169-.003.277-.011a19.365 19.365 0 0 1 .986 1.378c.173.265.344.538.513.819.169.28.327.56.473.836h1.626c-.139-.3-.296-.605-.473-.917a18.953 18.953 0 0 0-1.119-1.736c-.184-.253-.35-.469-.496-.645 1.07-.385 1.603-1.12 1.603-2.203 0-.869-.305-1.515-.916-1.938-.612-.423-1.494-.634-2.647-.634-.315 0-.673.013-1.073.04a7.78 7.78 0 0 0-1.13.156v7.877h1.453zm.634-4.198h-.634v-2.583a9.75 9.75 0 0 1 .854-.035 4.5 4.5 0 0 1 .784.063c.238.043.444.114.617.214.173.1.305.234.398.404.092.169.138.376.138.622 0 .262-.046.477-.138.646a1.01 1.01 0 0 1-.41.404c-.18.1-.405.169-.674.207a6.68 6.68 0 0 1-.935.058z"/>
    </g>
</svg>
