<svg xmlns="http://www.w3.org/2000/svg" width="1440" height="217" viewBox="0 0 1440 217">
    <defs>
        <filter id="a" width="102.4%" height="116.8%" x="-1.2%" y="-8.4%" filterUnits="objectBoundingBox">
            <feOffset dy="3" in="SourceAlpha" result="shadowOffsetOuter1"/>
            <feGaussianBlur in="shadowOffsetOuter1" result="shadowBlurOuter1" stdDeviation="3"/>
            <feColorMatrix in="shadowBlurOuter1" result="shadowMatrixOuter1" values="0 0 0 0 0 0 0 0 0 0 0 0 0 0 0 0 0 0 0.08 0"/>
            <feMerge>
                <feMergeNode in="shadowMatrixOuter1"/>
                <feMergeNode in="SourceGraphic"/>
            </feMerge>
        </filter>
    </defs>
    <g fill="none" fill-rule="evenodd" filter="url(#a)">
        <path fill="#FFD058" d="M0 0h1440v208H0z"/>
        <path fill="#FFF" d="M47 0h60v208H47zM164 0h60v208h-60zM281 0h60v208h-60zM398 0h60v208h-60zM515 0h60v208h-60zM632 0h60v208h-60zM749 0h60v208h-60zM866 0h60v208h-60zM983 0h60v208h-60zM1100 0h60v208h-60zM1217 0h60v208h-60zM1334 0h60v208h-60z"/>
        <path fill="#000" d="M0 148h1440v60H0z" opacity=".1"/>
    </g>
</svg>
